<svg width="512" height="512" viewBox="0 0 512 512" fill="none" xmlns="http://www.w3.org/2000/svg">
  <!-- Background gradient -->
  <defs>
    <linearGradient id="grad1" x1="0%" y1="0%" x2="100%" y2="100%">
      <stop offset="0%" style="stop-color:#3b82f6;stop-opacity:1" />
      <stop offset="100%" style="stop-color:#1e40af;stop-opacity:1" />
    </linearGradient>
  </defs>
  
  <!-- Main circle background -->
  <circle cx="256" cy="256" r="240" fill="url(#grad1)"/>
  
  <!-- Film strip icon -->
  <g transform="translate(256, 256)">
    <!-- Main film strip rectangle -->
    <rect x="-120" y="-80" width="240" height="160" rx="12" fill="white" opacity="0.95"/>
    
    <!-- Film sprocket holes (left) -->
    <rect x="-110" y="-60" width="15" height="20" rx="3" fill="#1e40af"/>
    <rect x="-110" y="-20" width="15" height="20" rx="3" fill="#1e40af"/>
    <rect x="-110" y="20" width="15" height="20" rx="3" fill="#1e40af"/>
    <rect x="-110" y="60" width="15" height="20" rx="3" fill="#1e40af"/>
    
    <!-- Film sprocket holes (right) -->
    <rect x="95" y="-60" width="15" height="20" rx="3" fill="#1e40af"/>
    <rect x="95" y="-20" width="15" height="20" rx="3" fill="#1e40af"/>
    <rect x="95" y="20" width="15" height="20" rx="3" fill="#1e40af"/>
    <rect x="95" y="60" width="15" height="20" rx="3" fill="#1e40af"/>
    
    <!-- Scissors overlay (representing clip/cut/forge) -->
    <g transform="rotate(-15)">
      <circle cx="-40" cy="-10" r="12" fill="#ef4444" stroke="white" stroke-width="3"/>
      <circle cx="40" cy="-10" r="12" fill="#ef4444" stroke="white" stroke-width="3"/>
      <line x1="-40" y1="-10" x2="0" y2="25" stroke="white" stroke-width="5" stroke-linecap="round"/>
      <line x1="40" y1="-10" x2="0" y2="25" stroke="white" stroke-width="5" stroke-linecap="round"/>
      <line x1="-40" y1="-10" x2="-60" y2="-30" stroke="white" stroke-width="4" stroke-linecap="round"/>
      <line x1="40" y1="-10" x2="60" y2="-30" stroke="white" stroke-width="4" stroke-linecap="round"/>
    </g>
  </g>
</svg>


